<?xml version="1.0" standalone="no"?>
<!DOCTYPE svg PUBLIC "-//W3C//DTD SVG 20010904//EN"
 "http://www.w3.org/TR/2001/REC-SVG-20010904/DTD/svg10.dtd">
<svg version="1.0" xmlns="http://www.w3.org/2000/svg"
 width="186.000000pt" height="190.000000pt" viewBox="0 0 186.000000 190.000000"
 preserveAspectRatio="xMidYMid meet">
<metadata>
Created by potrace 1.15, written by Peter Selinger 2001-2017
</metadata>
<g transform="translate(0.000000,190.000000) scale(0.100000,-0.100000)"
fill="#000000" stroke="none">
<path d="M743 1881 c-141 -52 -272 -205 -290 -340 -5 -35 -9 -40 -38 -45 -68
-13 -152 -66 -219 -137 -36 -38 -66 -74 -66 -79 0 -6 -10 -32 -23 -58 -19 -41
-22 -63 -22 -182 0 -132 1 -136 32 -201 61 -123 199 -229 325 -247 67 -9 77
-32 14 -32 -41 0 -48 -3 -56 -26 -6 -14 -10 -41 -10 -60 0 -33 -20 -48 -35
-24 -9 14 -121 12 -145 -2 -16 -10 -24 -10 -40 0 -11 6 -49 12 -85 12 -61 0
-66 -2 -75 -26 -14 -35 -13 -308 2 -355 6 -21 20 -48 30 -59 18 -19 30 -20
292 -20 l274 0 6 31 c3 17 6 49 6 70 0 28 4 39 15 39 11 0 15 -11 15 -39 0
-21 3 -53 6 -70 l7 -31 108 0 c92 0 109 2 109 16 0 14 2 14 22 0 18 -13 70
-15 337 -16 220 0 319 4 328 12 10 8 17 8 25 0 8 -8 56 -12 140 -12 l128 0 0
88 c0 85 -1 87 -27 100 -15 6 -35 12 -45 12 -11 0 -18 7 -18 20 0 17 7 20 45
20 l45 0 0 98 c0 96 -1 97 -27 110 -15 6 -35 12 -44 12 -13 0 -19 9 -21 32 -5
47 -55 72 -128 64 -66 -8 -80 -20 -87 -75 -5 -40 -16 -51 -28 -31 -3 5 -28 12
-55 16 l-50 7 0 52 0 52 60 7 c136 16 228 72 301 185 55 86 62 117 57 257 -4
117 -23 165 -100 249 -74 82 -155 118 -273 123 l-92 4 -6 86 c-12 162 -106
301 -254 374 -64 31 -74 33 -193 36 -103 2 -134 -1 -177 -17z m350 -49 c93
-46 159 -114 204 -208 34 -71 37 -85 37 -168 l1 -91 100 0 c93 0 105 -2 167
-33 75 -37 143 -105 180 -180 18 -36 24 -68 26 -138 4 -90 -10 -174 -28 -174
-6 0 -10 -5 -10 -11 0 -27 -68 -112 -114 -144 -69 -47 -129 -67 -203 -67 l-63
1 0 -73 0 -73 -39 -11 c-82 -25 -125 -95 -101 -166 10 -32 51 -78 80 -90 8 -3
-2 -4 -22 -1 -30 5 -40 2 -50 -15 -21 -33 -27 -23 -21 35 18 174 -127 292
-276 225 -71 -32 -131 -25 -131 16 0 23 0 23 143 26 134 3 142 4 142 23 0 19
-8 20 -145 23 -79 1 -149 7 -154 12 -14 14 -120 12 -134 -2 -7 -7 -12 -42 -12
-85 l0 -73 -39 0 -39 0 -7 123 c-3 67 -5 242 -3 390 2 172 -1 268 -7 271 -33
11 -35 -4 -36 -313 -1 -168 -4 -293 -8 -276 -6 28 -10 30 -62 37 -129 16 -261
114 -322 237 -31 64 -32 70 -31 186 1 102 5 126 23 160 11 21 21 45 21 52 0 7
27 42 61 77 64 69 152 121 220 132 35 6 37 9 42 49 10 98 91 223 185 287 79
54 134 69 252 66 96 -3 112 -6 173 -36z m-563 -1387 l0 -85 85 0 85 0 0 85 0
85 50 0 50 0 0 -220 0 -220 -50 0 -50 0 0 95 0 95 -85 0 -85 0 0 -95 0 -95
-50 0 -50 0 0 220 0 220 50 0 50 0 0 -85z m1160 35 l0 -50 55 0 55 0 0 -40 0
-40 -55 0 -55 0 0 -84 c0 -97 9 -110 70 -104 37 3 40 1 46 -25 9 -41 -8 -52
-81 -52 -53 0 -67 4 -89 24 -38 36 -46 79 -46 248 0 150 0 153 23 157 49 11
62 14 70 15 4 0 7 -21 7 -49z m-574 -59 c60 -28 89 -79 89 -161 0 -83 -24
-126 -85 -157 -56 -29 -94 -29 -150 -1 -120 61 -120 255 0 316 54 27 92 28
146 3z m384 4 c4 -2 5 -19 1 -37 -7 -32 -7 -33 -66 -33 -48 0 -60 -3 -63 -17
-2 -13 14 -26 60 -48 35 -17 69 -38 76 -47 19 -27 15 -100 -7 -122 -37 -37
-123 -50 -193 -30 -39 10 -44 21 -32 66 5 19 9 20 34 12 44 -16 114 -7 118 14
3 13 -13 24 -61 46 -72 32 -87 51 -87 108 0 75 48 106 153 98 32 -3 62 -7 67
-10z m-1360 -113 c0 -137 7 -155 60 -150 l35 3 3 133 3 132 44 0 45 0 0 -164
c0 -135 -3 -165 -15 -169 -35 -14 -161 -17 -195 -5 -59 22 -74 63 -79 211 l-3
127 51 0 51 0 0 -118z"/>
<path d="M851 1476 c-112 -112 -122 -136 -56 -136 l35 0 2 -302 3 -303 125 0
125 0 3 303 2 302 35 0 c64 0 55 23 -51 133 -55 56 -103 103 -109 105 -5 1
-57 -44 -114 -102z"/>
<path d="M1152 1063 l3 -108 113 -5 c61 -3 112 -3 112 0 0 9 -215 220 -223
220 -4 0 -6 -48 -5 -107z"/>
<path d="M813 639 c-6 -6 -9 -18 -6 -25 4 -11 37 -14 154 -14 128 0 151 2 156
16 3 9 0 20 -8 25 -21 13 -283 11 -296 -2z"/>
<path d="M1008 349 c-27 -15 -41 -81 -28 -129 16 -61 71 -80 110 -38 29 31 29
125 0 156 -22 23 -54 28 -82 11z"/>
</g>
</svg>
